<?xml version="1.0" encoding="UTF-8" standalone="no"?>
<!-- Created with Inkscape (http://www.inkscape.org/) -->

<svg
   width="129.07118mm"
   height="18.814354mm"
   viewBox="0 0 129.07118 18.814354"
   version="1.1"
   id="svg1"
   inkscape:version="1.4 (e7c3feb100, 2024-10-09)"
   sodipodi:docname="veraison-text.svg"
   xmlns:inkscape="http://www.inkscape.org/namespaces/inkscape"
   xmlns:sodipodi="http://sodipodi.sourceforge.net/DTD/sodipodi-0.dtd"
   xmlns="http://www.w3.org/2000/svg"
   xmlns:svg="http://www.w3.org/2000/svg">
  <sodipodi:namedview
     id="namedview1"
     pagecolor="#808080"
     bordercolor="#eeeeee"
     borderopacity="1"
     inkscape:showpageshadow="0"
     inkscape:pageopacity="0"
     inkscape:pagecheckerboard="0"
     inkscape:deskcolor="#d1d1d1"
     inkscape:document-units="mm"
     inkscape:zoom="1.2863133"
     inkscape:cx="219.23119"
     inkscape:cy="209.9022"
     inkscape:window-width="2558"
     inkscape:window-height="1413"
     inkscape:window-x="1920"
     inkscape:window-y="265"
     inkscape:window-maximized="1"
     inkscape:current-layer="layer1" />
  <defs
     id="defs1">
    <rect
       x="-259.46585"
       y="171.51134"
       width="548.61639"
       height="45.076694"
       id="rect2" />
    <rect
       x="80.258507"
       y="205.5937"
       width="315.53687"
       height="86.855103"
       id="rect1" />
  </defs>
  <g
     inkscape:label="Layer 1"
     inkscape:groupmode="layer"
     id="layer1"
     transform="translate(-38.800163,-83.307646)">
    <g
       id="text3"
       style="font-size:19.7556px;line-height:1.25;font-family:Arial;-inkscape-font-specification:'Arial, Normal';display:inline;stroke-width:0.264583"
       aria-label="VERAISON">
      <path
         style="font-size:25.4px;fill:#005516"
         d="M 45.844694,101.81194 38.800163,83.630107 h 2.604492 l 4.725293,13.208496 q 0.570507,1.5875 0.95498,2.976563 0.42168,-1.488281 0.979785,-2.976563 l 4.911328,-13.208496 h 2.455664 L 48.31276,101.81194 Z"
         id="path21" />
      <path
         style="font-size:25.4px;fill:#255500"
         d="M 57.639322,101.81194 V 83.630107 h 13.146484 v 2.145606 H 60.045377 v 5.568652 h 10.0583 v 2.133203 h -10.0583 v 6.18877 h 11.162109 v 2.145602 z"
         id="path22" />
      <path
         style="font-size:25.4px;fill:#4d5500"
         d="M 74.56852,101.81194 V 83.630107 h 8.061524 q 2.430859,0 3.695898,0.496094 1.265039,0.483692 2.021582,1.723926 0.756543,1.240234 0.756543,2.740918 0,1.934765 -1.252637,3.261816 -1.252636,1.327051 -3.869531,1.686719 0.954981,0.458887 1.451074,0.905371 1.054199,0.967383 1.996778,2.418457 l 3.162597,4.948532 h -3.026172 l -2.406054,-3.782712 q -1.054199,-1.637109 -1.736328,-2.505273 -0.682129,-0.868164 -1.227832,-1.21543 -0.533301,-0.347265 -1.091407,-0.483691 -0.409277,-0.08682 -1.339453,-0.08682 h -2.790527 v 8.073926 z m 2.406055,-10.157516 h 5.171777 q 1.649512,0 2.579688,-0.334864 0.930175,-0.347265 1.413867,-1.091406 0.483691,-0.756543 0.483691,-1.637109 0,-1.289844 -0.942578,-2.120801 -0.930176,-0.830957 -2.951758,-0.830957 h -5.754687 z"
         id="path23" />
      <path
         style="font-size:25.4px;fill:#573800"
         d="m 90.877599,101.81194 6.98252,-18.181833 h 2.592091 l 7.4414,18.181833 h -2.74091 l -2.1208,-5.506637 h -7.602641 l -1.996777,5.506637 z m 5.246192,-7.466208 h 6.163969 l -1.89756,-5.035351 q -0.868167,-2.294434 -1.289847,-3.770313 -0.347266,1.748731 -0.979785,3.472656 z"
         id="path24" />
      <path
         style="font-size:25.4px;fill:#572600"
         d="M 110.22526,101.81194 V 83.630107 h 2.40605 v 18.181833 z"
         id="path25" />
      <path
         style="font-size:25.4px;fill:#550000"
         d="m 116.05436,95.970439 2.26963,-0.198437 q 0.16123,1.364258 0.74414,2.244824 0.59531,0.868164 1.83554,1.413867 1.24024,0.533301 2.79053,0.533301 1.37666,0 2.43086,-0.409277 1.0542,-0.409278 1.5627,-1.116211 0.52089,-0.719336 0.52089,-1.562696 0,-0.855761 -0.49609,-1.488281 -0.49609,-0.644922 -1.63711,-1.079004 -0.73174,-0.285254 -3.23701,-0.880566 -2.50527,-0.607715 -3.50986,-1.141016 -1.30225,-0.682129 -1.94717,-1.686719 -0.63252,-1.016992 -0.63252,-2.269628 0,-1.376661 0.78135,-2.567286 0.78134,-1.203027 2.28203,-1.823144 1.50068,-0.620117 3.33623,-0.620117 2.02158,0 3.55947,0.657324 1.55029,0.644922 2.38125,1.909961 0.83096,1.265039 0.89297,2.864941 l -2.30684,0.173633 q -0.18603,-1.723926 -1.26504,-2.604492 -1.0666,-0.880566 -3.16259,-0.880566 -2.18282,0 -3.18741,0.806152 -0.99218,0.79375 -0.99218,1.922363 0,0.979785 0.70693,1.612305 0.69453,0.632519 3.62148,1.302246 2.93936,0.657324 4.03077,1.153418 1.5875,0.731738 2.34404,1.860351 0.75654,1.116211 0.75654,2.579688 0,1.451074 -0.83095,2.740918 -0.83096,1.277439 -2.39366,1.996779 -1.55029,0.70693 -3.49746,0.70693 -2.46806,0 -4.14238,-0.71933 -1.66191,-0.71934 -2.6169,-2.158012 -0.94257,-1.451074 -0.99218,-3.274219 z"
         id="path26" />
      <path
         style="font-size:25.4px;fill:#550043"
         d="m 133.08278,92.95667 q 0,-4.526856 2.43086,-7.081738 2.43086,-2.567286 6.27558,-2.567286 2.51768,0 4.53926,1.203028 2.02158,1.203027 3.07578,3.361035 1.0666,2.145605 1.0666,4.874121 0,2.765723 -1.11621,4.948535 -1.11621,2.182812 -3.16259,3.311425 -2.04639,1.11621 -4.41524,1.11621 -2.56728,0 -4.58887,-1.24023 -2.02158,-1.240237 -3.06337,-3.385843 -1.0418,-2.145605 -1.0418,-4.539257 z m 2.48047,0.03721 q 0,3.286621 1.76113,5.184179 1.77353,1.885151 4.44004,1.885151 2.71611,0 4.46484,-1.909955 1.76114,-1.909961 1.76114,-5.419824 0,-2.22002 -0.75655,-3.869532 -0.74414,-1.661914 -2.19521,-2.567285 -1.43867,-0.917773 -3.23701,-0.917773 -2.55489,0 -4.40284,1.761133 -1.83554,1.74873 -1.83554,5.853906 z"
         id="path27" />
      <path
         style="font-size:25.4px;fill:#390057"
         d="M 153.54664,101.81194 V 83.630107 h 2.46807 l 9.5498,14.275098 V 83.630107 h 2.30684 v 18.181833 h -2.46807 l -9.5498,-14.287497 v 14.287497 z"
         id="path28" />
    </g>
  </g>
</svg>
